<mxfile host="app.diagrams.net" modified="2022-04-18T14:38:32.370Z" agent="5.0 (Windows NT 10.0; Win64; x64) AppleWebKit/537.36 (KHTML, like Gecko) Chrome/100.0.4896.88 Safari/537.36" etag="uInKSfMPY0nhJDavMJtq" version="17.4.5" type="github">
  <diagram id="wiQ8Lzi3Vjw1ZslagZor" name="Page-1">
    <mxGraphModel dx="1422" dy="762" grid="1" gridSize="10" guides="1" tooltips="1" connect="1" arrows="1" fold="1" page="1" pageScale="1" pageWidth="850" pageHeight="1100" math="0" shadow="0">
      <root>
        <mxCell id="0" />
        <mxCell id="1" parent="0" />
        <mxCell id="L_VHjBdt1VF4U8gCM4sk-1" value="&lt;font style=&quot;font-size: 22px&quot;&gt;Log in info&lt;/font&gt;" style="rounded=1;whiteSpace=wrap;html=1;strokeWidth=3;" vertex="1" parent="1">
          <mxGeometry x="470" y="180" width="140" height="60" as="geometry" />
        </mxCell>
        <mxCell id="L_VHjBdt1VF4U8gCM4sk-4" value="&lt;font style=&quot;font-size: 22px&quot;&gt;Player&lt;/font&gt;" style="rounded=1;whiteSpace=wrap;html=1;strokeWidth=3;" vertex="1" parent="1">
          <mxGeometry x="100" y="180" width="140" height="60" as="geometry" />
        </mxCell>
        <mxCell id="L_VHjBdt1VF4U8gCM4sk-7" value="" style="endArrow=none;html=1;rounded=0;fontSize=22;strokeColor=default;strokeWidth=2;exitX=1;exitY=0.5;exitDx=0;exitDy=0;entryX=0;entryY=0.5;entryDx=0;entryDy=0;" edge="1" parent="1" source="L_VHjBdt1VF4U8gCM4sk-4" target="L_VHjBdt1VF4U8gCM4sk-1">
          <mxGeometry width="50" height="50" relative="1" as="geometry">
            <mxPoint x="230" y="340" as="sourcePoint" />
            <mxPoint x="330" y="210" as="targetPoint" />
          </mxGeometry>
        </mxCell>
        <mxCell id="L_VHjBdt1VF4U8gCM4sk-10" value="&lt;span style=&quot;color: rgb(0 , 0 , 0) ; font-family: &amp;#34;helvetica&amp;#34; ; font-size: 22px ; font-style: normal ; font-weight: 400 ; letter-spacing: normal ; text-indent: 0px ; text-transform: none ; word-spacing: 0px ; background-color: rgb(248 , 249 , 250) ; display: inline ; float: none&quot;&gt;Logs in&lt;/span&gt;" style="text;whiteSpace=wrap;html=1;align=center;" vertex="1" parent="1">
          <mxGeometry x="320" y="170" width="80" height="40" as="geometry" />
        </mxCell>
        <mxCell id="L_VHjBdt1VF4U8gCM4sk-11" value="&lt;font style=&quot;font-size: 22px&quot;&gt;Game state&lt;/font&gt;" style="rounded=1;whiteSpace=wrap;html=1;strokeWidth=3;" vertex="1" parent="1">
          <mxGeometry x="475" y="400" width="140" height="60" as="geometry" />
        </mxCell>
        <mxCell id="L_VHjBdt1VF4U8gCM4sk-12" value="&lt;font style=&quot;font-size: 22px&quot;&gt;Player&lt;/font&gt;" style="rounded=1;whiteSpace=wrap;html=1;strokeWidth=3;" vertex="1" parent="1">
          <mxGeometry x="105" y="400" width="140" height="60" as="geometry" />
        </mxCell>
        <mxCell id="L_VHjBdt1VF4U8gCM4sk-13" value="" style="endArrow=none;html=1;rounded=0;fontSize=22;strokeColor=default;strokeWidth=2;exitX=1;exitY=0.5;exitDx=0;exitDy=0;entryX=0;entryY=0.5;entryDx=0;entryDy=0;" edge="1" source="L_VHjBdt1VF4U8gCM4sk-12" target="L_VHjBdt1VF4U8gCM4sk-11" parent="1">
          <mxGeometry width="50" height="50" relative="1" as="geometry">
            <mxPoint x="235" y="560" as="sourcePoint" />
            <mxPoint x="335" y="430" as="targetPoint" />
          </mxGeometry>
        </mxCell>
        <mxCell id="L_VHjBdt1VF4U8gCM4sk-14" value="&lt;span style=&quot;color: rgb(0 , 0 , 0) ; font-family: &amp;#34;helvetica&amp;#34; ; font-size: 22px ; font-style: normal ; font-weight: 400 ; letter-spacing: normal ; text-indent: 0px ; text-transform: none ; word-spacing: 0px ; background-color: rgb(248 , 249 , 250) ; display: inline ; float: none&quot;&gt;Load game&lt;/span&gt;" style="text;whiteSpace=wrap;html=1;align=center;" vertex="1" parent="1">
          <mxGeometry x="297.5" y="390" width="125" height="40" as="geometry" />
        </mxCell>
        <mxCell id="L_VHjBdt1VF4U8gCM4sk-15" value="&lt;font style=&quot;font-size: 22px&quot;&gt;Game state&lt;/font&gt;" style="rounded=1;whiteSpace=wrap;html=1;strokeWidth=3;" vertex="1" parent="1">
          <mxGeometry x="475" y="290" width="140" height="60" as="geometry" />
        </mxCell>
        <mxCell id="L_VHjBdt1VF4U8gCM4sk-16" value="&lt;font style=&quot;font-size: 22px&quot;&gt;Player&lt;/font&gt;" style="rounded=1;whiteSpace=wrap;html=1;strokeWidth=3;" vertex="1" parent="1">
          <mxGeometry x="105" y="290" width="140" height="60" as="geometry" />
        </mxCell>
        <mxCell id="L_VHjBdt1VF4U8gCM4sk-17" value="" style="endArrow=none;html=1;rounded=0;fontSize=22;strokeColor=default;strokeWidth=2;exitX=1;exitY=0.5;exitDx=0;exitDy=0;entryX=0;entryY=0.5;entryDx=0;entryDy=0;" edge="1" source="L_VHjBdt1VF4U8gCM4sk-16" target="L_VHjBdt1VF4U8gCM4sk-15" parent="1">
          <mxGeometry width="50" height="50" relative="1" as="geometry">
            <mxPoint x="235" y="450" as="sourcePoint" />
            <mxPoint x="335" y="320" as="targetPoint" />
          </mxGeometry>
        </mxCell>
        <mxCell id="L_VHjBdt1VF4U8gCM4sk-18" value="&lt;font face=&quot;helvetica&quot;&gt;&lt;span style=&quot;font-size: 22px&quot;&gt;Save game&lt;/span&gt;&lt;/font&gt;" style="text;whiteSpace=wrap;html=1;align=center;" vertex="1" parent="1">
          <mxGeometry x="302.5" y="280" width="115" height="40" as="geometry" />
        </mxCell>
      </root>
    </mxGraphModel>
  </diagram>
</mxfile>
